<?xml version="1.0" encoding="utf-8"?>
<!-- Generator: Adobe Illustrator 27.0.0, SVG Export Plug-In . SVG Version: 6.00 Build 0)  -->
<svg version="1.1" id="Layer_1" xmlns="http://www.w3.org/2000/svg" xmlns:xlink="http://www.w3.org/1999/xlink" x="0px" y="0px"
	 viewBox="0 0 43.8 36.9" style="enable-background:new 0 0 43.8 36.9;" xml:space="preserve">
<style type="text/css">
	.st0{fill:#FF5E14;}
</style>
<path d="M5.7,36.9c-1.1,0-2.1-0.3-3.1-0.9s-1.7-1.5-2.2-2.8c-0.2-0.5-0.3-0.9-0.3-1.4C0,31.2,0,30.7,0,30.3s0.1-0.7,0.3-0.7
	s0.3,0.1,0.3,0.4c0,1.6,0.4,2.9,1.2,3.7c0.8,0.8,1.8,1.2,3.1,1.2s2.4-0.3,3.5-1c1.1-0.7,2.2-1.6,3.1-2.6c1.6-1.8,3.1-3.8,4.4-6
	s2.5-4.6,3.6-7c0.3-0.6,0.7-1.5,1.2-2.8s1.1-2.7,1.7-4.2c0.6-1.5,1.2-2.9,1.8-4.2c0.5-1.2,1-2.1,1.3-2.8s0.9-1.3,1.5-1.8
	c0.6-0.5,1.5-1,2.8-1.5c-0.5,0-1.1,0.1-1.5,0.1c-0.5,0-0.9,0.1-1.1,0.1c-1.3,0-2.6,0.1-3.9,0.3c-1.3,0.1-2.5,0.4-3.5,0.8
	S17.8,3,17.4,3.6c-0.3,0.4-0.5,1-0.5,1.6s0.2,1.2,0.5,1.7s0.7,0.9,1.2,1.2c0.1,0.1,0.1,0.1,0.1,0.2c0,0.1-0.1,0.1-0.2,0.2
	c-0.2,0.1-0.3,0.1-0.5,0.1c-0.3-0.2-0.6-0.5-1-0.8c-0.4-0.4-0.8-0.8-1.1-1.3c-0.3-0.4-0.5-0.8-0.6-1.1C15,4.9,15,4.5,15,4
	c0-0.8,0.3-1.5,0.9-2c0.6-0.5,1.4-0.9,2.4-1.2c1-0.3,2-0.5,3.1-0.6C22.5,0.1,23.6,0,24.6,0c1,0,2,0,2.7,0h5.6C33,0,33,0,33,0
	c0,0.1-0.1,0.2-0.3,0.4c-0.2,0.2-0.4,0.3-0.4,0.3c-1,0-1.8,0.4-2.6,1.1s-1.4,1.5-1.9,2.4s-1,1.7-1.3,2.4c-0.2,0.4-0.5,1.1-1,2
	c-0.4,0.9-0.9,1.9-1.4,3.1s-1,2.3-1.5,3.4s-0.9,2.1-1.3,3c-0.9,2.1-1.7,4-2.5,5.8c-0.8,1.8-1.6,3.4-2.6,5c-0.9,1.5-2.1,3.1-3.5,4.6
	c-0.9,0.9-2,1.7-3.3,2.4S6.8,36.9,5.7,36.9L5.7,36.9z"/>
<g>
	<path class="st0" d="M15.6,32.9c0.8-1.5,1.5-3,2.2-4.6c0.7-1.5,1.4-3,2.1-4.4c0.4-0.8,0.8-1.3,1.1-1.6c0.3-0.3,0.7-0.5,1.2-0.5
		c0.2,0,0.4,0,0.5,0.1c0.2,0,0.4,0.1,0.6,0.1c0.1,0,0.2,0,0.3,0c-0.3,0.2-0.7,0.6-1.2,1.3c-0.5,0.7-1,1.5-1.4,2.3s-0.9,1.7-1.3,2.5
		c0.4-0.5,0.8-1,1.3-1.5c0.4-0.5,0.9-1,1.5-1.4c0.5-0.4,1-0.9,1.5-1.3s1-0.9,1.6-1.2c0.5-0.3,1-0.5,1.4-0.5c0.1,0,0.2,0,0.3,0
		c0.4,0.2,0.6,0.5,0.6,0.8c0,0.1,0,0.3-0.2,0.6c-0.3,0.7-0.6,1.5-1.1,2.2s-0.9,1.5-1.2,2.3c0.3-0.4,0.7-0.9,1.2-1.4
		c0.5-0.6,1-1,1.5-1.5c0.5-0.4,1.1-0.9,1.8-1.4c0.7-0.5,1.4-0.9,2.1-1.2c0.7-0.3,1.3-0.5,1.7-0.5c0.2,0,0.3,0,0.3,0
		c-0.5,0.8-0.9,1.6-1.2,2.3s-0.7,1.4-1.1,2.1c-0.4,0.8-0.7,1.5-1,2.2c-0.3,0.7-0.5,1.3-0.6,1.8c-0.1,0.3-0.1,0.5-0.1,0.8
		c0,0.3,0.1,0.6,0.2,0.7c0.1,0.1,0.3,0.2,0.4,0.2c0.4,0,0.9-0.2,1.3-0.7s0.9-1,1.3-1.6c0.4-0.6,0.8-1.2,1.1-1.9s0.6-1.1,0.7-1.4
		c0.1-0.2,0.3-0.4,0.4-0.4s0.2,0.1,0.2,0.3c0,0.1,0,0.2-0.1,0.4c-0.3,0.5-0.6,1.1-0.9,1.8c-0.3,0.7-0.8,1.4-1.2,2
		c-0.5,0.6-1,1.2-1.5,1.6c-0.5,0.4-1.1,0.7-1.8,0.7c-0.5,0-0.9-0.2-1.4-0.5c-0.5-0.3-0.7-0.9-0.7-1.7c0-0.5,0.1-1,0.3-1.6
		c0.1-0.4,0.4-0.9,0.7-1.5c0.3-0.6,0.7-1.2,1.1-1.9c0.2-0.4,0.3-0.6,0.3-0.9c0-0.3-0.1-0.4-0.4-0.4c-0.2,0-0.5,0.1-0.9,0.3
		c-0.4,0.2-0.8,0.6-1.4,1.1c-0.3,0.3-0.7,0.8-1.2,1.3c-0.5,0.6-0.9,1.2-1.4,1.9c-0.5,0.7-0.9,1.3-1.2,2c-0.3,0.6-0.6,1.2-0.7,1.7
		c-0.3,0-0.6-0.1-0.8-0.4s-0.3-0.6-0.3-1v-0.2c0-0.1,0-0.1,0-0.2c0.1-0.7,0.3-1.3,0.5-1.9c0.2-0.6,0.5-1.2,0.8-1.8
		c0.2-0.5,0.5-0.9,0.7-1.5c0.2-0.5,0.4-0.9,0.4-1.2c0-0.2-0.1-0.3-0.2-0.3c-0.1,0-0.4,0.1-0.7,0.3c-0.3,0.2-0.8,0.6-1.4,1.2
		c-0.5,0.5-1.2,1.2-1.9,2.2c-0.8,1-1.6,2.3-2.5,4.1c-0.1,0.2-0.3,0.4-0.5,0.4s-0.4,0.1-0.8,0.1c-0.2,0-0.4,0-0.6,0
		C15.9,32.8,15.8,32.8,15.6,32.9L15.6,32.9z"/>
	<path class="st0" d="M35.7,32.9c-1,0-1.8-0.3-2.2-0.8s-0.7-1.1-0.7-1.7c0-0.5,0.1-0.9,0.4-1.4s0.5-0.6,0.9-0.6
		c0.4-0.8,0.9-1.7,1.4-2.7c0.5-1,1-1.9,1.4-2.9c0.3-0.6,0.7-1.2,1.1-1.8s1-0.9,1.5-1h0.3c0.2,0,0.3,0,0.5,0s0.3,0.1,0.4,0.1
		c0.2,0.1,0.3,0.3,0.3,0.5c0,0.1-0.1,0.2-0.2,0.2c-0.1,0-0.2,0-0.3-0.1c-0.3-0.1-0.5-0.2-0.7-0.2c-0.1,0-0.2,0-0.3,0.1
		c-0.4,0.2-0.7,0.5-0.8,0.9s-0.2,0.8-0.2,1.2c0,0.3,0,0.7,0.1,1c0.1,0.4,0.2,0.7,0.3,1c0.2,0.6,0.5,1.2,0.8,1.8
		c0.3,0.6,0.4,1.2,0.4,1.9s-0.2,1.3-0.6,2c-0.4,0.7-1,1.3-1.6,1.7l0.2,0c0.1,0,0.2,0,0.2,0h0.1c0.5,0,1-0.1,1.4-0.4
		c0.4-0.3,0.8-0.6,1.2-1.1c0.3-0.4,0.7-1,1.2-1.8c0.4-0.8,0.9-1.6,1.3-2.4c0.1-0.1,0.1-0.2,0.2-0.2c0.1,0,0.2,0,0.2,0.1
		c0,0.1,0.1,0.2,0,0.3c-0.3,0.6-0.6,1.2-1,1.9c-0.3,0.7-0.8,1.4-1.2,2s-1,1.1-1.6,1.5c-0.6,0.4-1.2,0.6-2,0.6c-0.2,0-0.3,0-0.5,0
		c-0.2,0-0.4-0.1-0.6-0.1c-0.2,0.1-0.4,0.2-0.7,0.2S35.9,32.8,35.7,32.9L35.7,32.9z M35.4,32.4c0.1,0,0.2,0,0.3,0
		c0.1,0,0.2-0.1,0.3-0.1c-0.3-0.2-0.6-0.5-0.8-1c-0.2-0.4-0.4-0.9-0.4-1.5c-0.4,0.4-0.6,0.9-0.6,1.3c0,0.3,0.1,0.6,0.3,0.9
		C34.7,32.2,35,32.4,35.4,32.4z M36.6,31.9c0.4-0.3,0.7-0.7,1-1.3s0.4-1.3,0.4-2.3c0-0.8-0.1-1.7-0.3-2.7c-0.2-0.9-0.3-1.8-0.3-2.5
		c0-0.1,0-0.3,0-0.4c0-0.1,0-0.2,0-0.3c-0.3,0.6-0.6,1.2-1,2s-0.7,1.5-1.1,2.2c-0.4,0.7-0.7,1.3-0.9,1.8c0.2,0,0.4,0.1,0.5,0.2
		c0.1,0.1,0.2,0.4,0.1,0.8c0,0.5,0.1,1,0.4,1.5S36.2,31.7,36.6,31.9z"/>
</g>
</svg>
