<?xml version="1.0" encoding="utf-8"?>
<!-- Generator: Adobe Illustrator 27.0.0, SVG Export Plug-In . SVG Version: 6.00 Build 0)  -->
<svg version="1.1" id="Layer_1" xmlns="http://www.w3.org/2000/svg" xmlns:xlink="http://www.w3.org/1999/xlink" x="0px" y="0px"
	 viewBox="0 0 2000 2000" style="enable-background:new 0 0 2000 2000;" xml:space="preserve">
<style type="text/css">
	.st0{fill:#FF5E14;}
</style>
<path d="M287.9,1807.8c-46.9,0-91.5-13.6-133.9-40.8c-42.3-27.2-74.1-68.1-95.3-122.5c-7.5-19.7-12.5-40.5-14.8-62.4
	c-2.3-21.9-3.4-43.5-3.4-64.7s3.8-31.8,11.3-31.8s11.3,6,11.3,18.2c0,71.1,17.8,124.8,53.3,161.1c35.6,36.3,80.6,54.4,135,54.4
	s104-15.1,153.2-45.4c49.2-30.3,94.9-68.8,137.3-115.7c71.1-77.1,135.8-165.2,194-264.3c58.2-99.1,110.8-201.6,157.7-307.4
	c12.1-25.7,29.5-66.9,52.2-123.7c22.7-56.7,47.7-118.7,74.9-186.1c27.2-67.3,53.7-128.2,79.4-182.6c22.7-51.4,42-92.2,57.9-122.5
	c15.9-30.2,37.4-55.9,64.7-77.1c27.2-21.2,68.1-42.3,122.5-63.5c-24.2,1.5-46.9,3.4-68.1,5.7c-21.2,2.3-37.8,3.4-49.9,3.4
	c-57.5,1.5-115,5.3-172.4,11.3c-57.5,6.1-108.9,17-154.3,32.9c-45.4,15.9-77.9,38.2-97.6,66.9c-13.6,19.7-20.4,42.4-20.4,68.1
	s6.8,50.7,20.4,74.9c13.6,24.2,31,41.6,52.2,52.2c3,3,4.5,5.3,4.5,6.8c0,3-3.4,6.5-10.2,10.2c-6.8,3.8-14,4.9-21.5,3.4
	c-12.1-7.5-27.2-20-45.4-37.4c-18.2-17.4-34.4-35.9-48.8-55.6c-14.4-19.6-23.8-36.3-28.4-49.9c-6.1-18.1-9.1-36.3-9.1-54.5
	c0-36.3,13.2-65.8,39.7-88.5c26.5-22.7,60.9-40.1,103.2-52.2c42.3-12.1,88.1-20.8,137.3-26.1c49.1-5.3,96.8-8.3,142.9-9.1
	c46.1-0.7,85.8-1.1,119.1-1.1h245.1c3,0,4.5,0.8,4.5,2.3c0,4.5-4.9,11-14.8,19.3c-9.9,8.3-16.3,12.5-19.3,12.5
	c-42.4,1.5-79.8,17.4-112.3,47.7c-32.5,30.3-60.5,64.7-83.9,103.2c-23.5,38.6-42.8,73.7-57.9,105.5c-9.1,18.1-23.1,47.3-42,87.3
	c-18.9,40.1-39.3,85.5-61.3,136.1c-21.9,50.7-43.9,101-65.8,150.9c-21.9,49.9-41.2,93-57.9,129.3c-39.3,90.8-76,175.1-110,253
	c-34,77.9-71.5,150.9-112.3,219c-40.8,68.1-91.5,134.6-152,199.7c-37.8,40.8-85.8,76-144.1,105.5
	C396.5,1793,340.9,1807.8,287.9,1807.8L287.9,1807.8z"/>
<g>
	<path class="st0" d="M723.2,1633.7c34.7-66.6,67.5-133.4,98.5-200.4c31-67,62.3-130.6,94.2-190.6c18.8-33.8,34.5-57.4,47.1-71
		c12.7-13.6,29.8-20.4,51.3-20.4c7.5,0,15.5,1.2,23.9,3.5c8.4,2.3,16.9,3.5,25.3,3.5c5.6,0,9.8-0.5,12.7-1.4
		c-13.1,7.5-30,26-50.6,55.6c-20.6,29.5-41.7,63.5-63.3,102c-21.6,38.5-40.8,74.6-57.7,108.3c17.8-21.6,36.3-43.1,55.6-64.7
		c19.2-21.6,40.5-42.2,64-61.9c20.6-17.8,42.4-37.3,65.4-58.4c23-21.1,45.7-39.1,68.2-54.2c22.5-15,42.2-22.5,59.1-22.5
		c6.6,0,10.8,0.5,12.7,1.4c17.8,7.5,26.7,19.7,26.7,36.6c0,5.6-2.3,14.1-7,25.3c-12.2,31.9-27.9,64.5-47.1,97.8
		c-19.2,33.3-37.3,66.8-54.2,100.6c14.1-16.9,31.7-37.5,52.8-61.9c21.1-24.4,42.4-45.9,64-64.7c20.6-18.8,46.9-38.4,78.8-59.1
		c31.9-20.6,63.3-38.4,94.2-53.4c30.9-15,55.8-22.5,74.6-22.5c6.6,0,11.3,0.5,14.1,1.4c-20.6,36.6-38.7,69.6-54.2,99.2
		s-31.2,61-47.1,94.2c-16,33.3-30.2,65.2-42.9,95.7c-12.7,30.5-20.9,56.1-24.6,76.7c-2.8,12.2-4.2,23.4-4.2,33.8
		c0,15,2.8,24.9,8.4,29.5c5.6,4.7,11.7,7,18.3,7c18.8,0,38-9.8,57.7-29.5c19.7-19.7,38.7-43.4,57-71c18.3-27.7,34.5-54.9,48.5-81.6
		c14.1-26.7,24.4-47.1,30.9-61.2c5.6-10.3,11.2-15.5,16.9-15.5s8.4,3.8,8.4,11.2c0,4.7-1.4,9.8-4.2,15.5
		c-11.3,21.6-24.6,47.4-40.1,77.4c-15.5,30-33.1,59.3-52.8,87.9c-19.7,28.6-41.5,52.5-65.4,71.7c-23.9,19.2-49.5,28.8-76.7,28.8
		c-19.7,0-39.6-6.6-59.8-19.7c-20.2-13.1-30.2-37.5-30.2-73.2c0-19.7,4.2-43.6,12.7-71.7c6.6-18.8,16.6-40.3,30.2-64.7
		c13.6-24.4,30.2-52.5,49.9-84.4c9.4-15.9,14.1-28.6,14.1-38c0-11.2-5.6-16.9-16.9-16.9c-9.4,0-22.3,4.7-38.7,14.1
		c-16.4,9.4-36.8,25.8-61.2,49.2c-15,14.1-32.6,33.5-52.8,58.4c-20.2,24.9-40.6,51.8-61.2,80.9c-20.6,29.1-38.5,57.7-53.4,85.8
		c-15,28.1-24.9,53-29.5,74.6c-14.1,0-25.3-5.8-33.8-17.6c-8.4-11.7-12.7-25.5-12.7-41.5v-8.4c0-2.8,0.5-6.1,1.4-9.8
		c4.7-29.1,12.2-56.3,22.5-81.6c10.3-25.3,22-51.6,35.2-78.8c10.3-19.7,20.6-41,30.9-64c10.3-23,15.5-40.6,15.5-52.8
		c0-7.5-2.8-11.2-8.4-11.2c-6.6,0-17.4,4.9-32.3,14.8c-15,9.8-35.7,27-61.9,51.3c-23.5,22.5-51.8,54.9-85.1,97.1
		c-33.3,42.2-69.6,102.2-109,180.1c-5.6,10.3-12.2,16.7-19.7,19c-7.5,2.3-19.2,3.5-35.2,3.5c-10.3,0-19,0.2-26,0.7
		C737.9,1627.8,730.7,1629.9,723.2,1633.7L723.2,1633.7z"/>
	<path class="st0" d="M1603.7,1632.3c-46,0-78.6-11.9-97.8-35.9c-19.2-23.9-28.8-49-28.8-75.3c0-21.6,5.4-41.3,16.2-59.1
		c10.8-17.8,23.7-27.2,38.7-28.1c18.8-36.6,39.1-76.4,61.2-119.6c22-43.1,42.4-84.9,61.2-125.2c13.1-27.2,29.8-53.4,49.9-78.8
		c20.2-25.3,42.4-39.8,66.8-43.6h14.1c7.5,0,14.3,0.5,20.4,1.4c6.1,0.9,12.4,2.8,19,5.6c10.3,4.7,15.5,11.7,15.5,21.1
		c0,5.6-3.3,8.4-9.8,8.4c-2.8,0-6.6-1.4-11.2-4.2c-11.2-4.7-21.1-7-29.5-7c-5.6,0-10.8,1.4-15.5,4.2c-17.8,9.4-30.2,22.5-37.3,39.4
		c-7,16.9-10.6,34.7-10.6,53.4c0,15,1.6,30.2,4.9,45.7c3.3,15.5,7.2,29.3,12,41.5c10.3,26.3,21.3,52.1,33.1,77.4
		c11.7,25.3,17.6,52.5,17.6,81.6s-9.4,57.9-28.1,89.3c-18.8,31.4-42.7,56.5-71.7,75.3l9.8,1.4c4.7,0.9,8,1.4,9.8,1.4h4.2
		c21.6,0,42-6.3,61.2-19c19.2-12.7,36.3-28.3,51.3-47.1c15-18.8,32.1-45,51.3-78.8c19.2-33.8,37.7-69.4,55.6-106.9
		c2.8-4.7,6.1-7,9.8-7c4.7,0,8.2,1.7,10.6,4.9c2.3,3.3,2.6,7.3,0.7,12c-12.2,26.3-26,54.6-41.5,85.1c-15.5,30.5-33.1,59.6-52.8,87.2
		c-19.7,27.7-42.4,50.2-68.2,67.5c-25.8,17.4-54.6,26-86.5,26c-7.5,0-15.5-0.5-23.9-1.4c-8.4-0.9-16.9-2.8-25.3-5.6
		c-9.4,3.8-19,6.8-28.8,9.1S1612.1,1632.3,1603.7,1632.3L1603.7,1632.3z M1592.5,1609.8c5.6,0,10.8-0.7,15.5-2.1
		c4.7-1.4,8.9-2.6,12.7-3.5c-14.1-10.3-26.5-24.1-37.3-41.5c-10.8-17.3-17.1-39.6-19-66.8c-16.9,17.8-25.3,37.1-25.3,57.7
		c0,15,4.7,28.1,14.1,39.4C1562.4,1604.1,1575.6,1609.8,1592.5,1609.8L1592.5,1609.8z M1645.9,1590.1c15.9-13.1,30.2-32.3,42.9-57.7
		s19-58.6,19-99.9c0-36.6-3.8-75.5-11.2-116.8c-7.5-41.2-11.2-77.8-11.2-109.7c0-6.6,0.2-12.4,0.7-17.6c0.5-5.1,1.2-10.1,2.1-14.8
		c-12.2,25.3-26.3,54.6-42.2,87.9c-16,33.3-31.9,65.4-47.8,96.4c-16,30.9-29.5,57.2-40.8,78.8c10.3,0.9,17.8,4.5,22.5,10.6
		c4.7,6.1,6.6,18.1,5.6,35.9c-0.9,23.4,4.4,45.2,16.2,65.4C1613.3,1568.8,1628.1,1582.6,1645.9,1590.1L1645.9,1590.1z"/>
</g>
</svg>
